<mxfile host="app.diagrams.net" agent="Mozilla/5.0 (Windows NT 10.0; Win64; x64) AppleWebKit/537.36 (KHTML, like Gecko) Chrome/132.0.0.0 Safari/537.36" version="26.0.11">
  <diagram name="Page-1" id="xsemVzgrihfsqJEpymwN">
    <mxGraphModel dx="1262" dy="562" grid="1" gridSize="10" guides="1" tooltips="1" connect="1" arrows="1" fold="1" page="1" pageScale="1" pageWidth="850" pageHeight="1100" math="0" shadow="0">
      <root>
        <mxCell id="0" />
        <mxCell id="1" parent="0" />
        <mxCell id="1rDSamccEq4zs1fKq_yu-1" value="googleSpeechAPI:&lt;br&gt;GoogleSpeechAPI" style="shape=umlLifeline;perimeter=lifelinePerimeter;whiteSpace=wrap;html=1;container=1;dropTarget=0;collapsible=0;recursiveResize=0;outlineConnect=0;portConstraint=eastwest;newEdgeStyle={&quot;curved&quot;:0,&quot;rounded&quot;:0};fillColor=light-dark(#A9C4EB,var(--ge-dark-color, #121212));" parent="1" vertex="1">
          <mxGeometry x="630" y="80" width="120" height="490" as="geometry" />
        </mxCell>
        <mxCell id="1rDSamccEq4zs1fKq_yu-36" value="" style="html=1;points=[[0,0,0,0,5],[0,1,0,0,-5],[1,0,0,0,5],[1,1,0,0,-5]];perimeter=orthogonalPerimeter;outlineConnect=0;targetShapes=umlLifeline;portConstraint=eastwest;newEdgeStyle={&quot;curved&quot;:0,&quot;rounded&quot;:0};fillColor=light-dark(#A9C4EB,var(--ge-dark-color, #121212));" parent="1rDSamccEq4zs1fKq_yu-1" vertex="1">
          <mxGeometry x="55" y="198" width="10" height="52" as="geometry" />
        </mxCell>
        <mxCell id="1rDSamccEq4zs1fKq_yu-2" value="userpreferences: UserPreferences" style="shape=umlLifeline;perimeter=lifelinePerimeter;whiteSpace=wrap;html=1;container=1;dropTarget=0;collapsible=0;recursiveResize=0;outlineConnect=0;portConstraint=eastwest;newEdgeStyle={&quot;curved&quot;:0,&quot;rounded&quot;:0};fillColor=light-dark(#A9C4EB,var(--ge-dark-color, #121212));" parent="1" vertex="1">
          <mxGeometry x="245.5" y="80" width="119" height="660" as="geometry" />
        </mxCell>
        <mxCell id="1rDSamccEq4zs1fKq_yu-4" value="ttssettings:&lt;br&gt;TTSSettings" style="shape=umlLifeline;perimeter=lifelinePerimeter;whiteSpace=wrap;html=1;container=1;dropTarget=0;collapsible=0;recursiveResize=0;outlineConnect=0;portConstraint=eastwest;newEdgeStyle={&quot;curved&quot;:0,&quot;rounded&quot;:0};fillColor=light-dark(#A9C4EB,var(--ge-dark-color, #121212));" parent="1" vertex="1">
          <mxGeometry x="455" y="80" width="100" height="500" as="geometry" />
        </mxCell>
        <mxCell id="1rDSamccEq4zs1fKq_yu-6" value="" style="html=1;points=[[0,0,0,0,5],[0,1,0,0,-5],[1,0,0,0,5],[1,1,0,0,-5]];perimeter=orthogonalPerimeter;outlineConnect=0;targetShapes=umlLifeline;portConstraint=eastwest;newEdgeStyle={&quot;curved&quot;:0,&quot;rounded&quot;:0};fillColor=light-dark(#A9C4EB,var(--ge-dark-color, #121212));" parent="1rDSamccEq4zs1fKq_yu-4" vertex="1">
          <mxGeometry x="45" y="110" width="10" height="300" as="geometry" />
        </mxCell>
        <mxCell id="1rDSamccEq4zs1fKq_yu-20" value="success" style="html=1;verticalAlign=bottom;endArrow=open;dashed=1;endSize=8;curved=0;rounded=0;" parent="1" target="1rDSamccEq4zs1fKq_yu-5" edge="1">
          <mxGeometry x="0.2253" y="-14" relative="1" as="geometry">
            <mxPoint x="500" y="320" as="sourcePoint" />
            <mxPoint x="275" y="290" as="targetPoint" />
            <Array as="points">
              <mxPoint x="500" y="360" />
              <mxPoint x="440" y="360" />
              <mxPoint x="390" y="360" />
            </Array>
            <mxPoint as="offset" />
          </mxGeometry>
        </mxCell>
        <mxCell id="1rDSamccEq4zs1fKq_yu-49" value="" style="shape=umlLifeline;perimeter=lifelinePerimeter;whiteSpace=wrap;html=1;container=1;dropTarget=0;collapsible=0;recursiveResize=0;outlineConnect=0;portConstraint=eastwest;newEdgeStyle={&quot;curved&quot;:0,&quot;rounded&quot;:0};participant=umlActor;fillColor=light-dark(#A9C4EB,var(--ge-dark-color, #121212));" parent="1" vertex="1">
          <mxGeometry x="100" y="90" width="20" height="810" as="geometry" />
        </mxCell>
        <mxCell id="1rDSamccEq4zs1fKq_yu-52" value="" style="html=1;points=[[0,0,0,0,5],[0,1,0,0,-5],[1,0,0,0,5],[1,1,0,0,-5]];perimeter=orthogonalPerimeter;outlineConnect=0;targetShapes=umlLifeline;portConstraint=eastwest;newEdgeStyle={&quot;curved&quot;:0,&quot;rounded&quot;:0};fillColor=light-dark(#A9C4EB,var(--ge-dark-color, #121212));" parent="1rDSamccEq4zs1fKq_yu-49" vertex="1">
          <mxGeometry x="5" y="50" width="10" height="760" as="geometry" />
        </mxCell>
        <mxCell id="1rDSamccEq4zs1fKq_yu-55" value="&quot;success message&quot;" style="html=1;verticalAlign=bottom;endArrow=open;dashed=1;endSize=8;curved=0;rounded=0;" parent="1" source="1rDSamccEq4zs1fKq_yu-5" edge="1" target="1rDSamccEq4zs1fKq_yu-52">
          <mxGeometry x="0.0038" relative="1" as="geometry">
            <mxPoint x="266" y="320" as="sourcePoint" />
            <mxPoint x="110" y="350" as="targetPoint" />
            <mxPoint as="offset" />
            <Array as="points">
              <mxPoint x="280" y="380" />
              <mxPoint x="260" y="380" />
              <mxPoint x="190" y="380" />
            </Array>
          </mxGeometry>
        </mxCell>
        <mxCell id="1rDSamccEq4zs1fKq_yu-76" value="error" style="html=1;verticalAlign=bottom;endArrow=open;dashed=1;endSize=8;curved=0;rounded=0;" parent="1" source="1rDSamccEq4zs1fKq_yu-6" target="1rDSamccEq4zs1fKq_yu-5" edge="1">
          <mxGeometry x="-0.0676" y="-10" relative="1" as="geometry">
            <mxPoint x="470" y="540" as="sourcePoint" />
            <mxPoint x="276" y="540" as="targetPoint" />
            <Array as="points">
              <mxPoint x="400" y="480" />
            </Array>
            <mxPoint as="offset" />
          </mxGeometry>
        </mxCell>
        <mxCell id="1rDSamccEq4zs1fKq_yu-77" value="&quot;error message&quot;" style="html=1;verticalAlign=bottom;endArrow=open;dashed=1;endSize=8;curved=0;rounded=0;" parent="1" source="1rDSamccEq4zs1fKq_yu-5" target="1rDSamccEq4zs1fKq_yu-52" edge="1">
          <mxGeometry relative="1" as="geometry">
            <mxPoint x="266" y="560" as="sourcePoint" />
            <mxPoint x="186" y="560" as="targetPoint" />
            <Array as="points">
              <mxPoint x="210" y="510" />
            </Array>
          </mxGeometry>
        </mxCell>
        <mxCell id="1rDSamccEq4zs1fKq_yu-94" value="" style="endArrow=none;dashed=1;html=1;rounded=0;entryX=0.995;entryY=0.629;entryDx=0;entryDy=0;entryPerimeter=0;elbow=vertical;exitX=-0.003;exitY=0.642;exitDx=0;exitDy=0;exitPerimeter=0;" parent="1" source="1rDSamccEq4zs1fKq_yu-42" target="1rDSamccEq4zs1fKq_yu-42" edge="1">
          <mxGeometry width="50" height="50" relative="1" as="geometry">
            <mxPoint x="60" y="440" as="sourcePoint" />
            <mxPoint x="694.995" y="480" as="targetPoint" />
            <Array as="points">
              <mxPoint x="420" y="440" />
            </Array>
          </mxGeometry>
        </mxCell>
        <mxCell id="1rDSamccEq4zs1fKq_yu-95" value="&lt;font size=&quot;1&quot;&gt;&lt;b&gt;[settings valid]&lt;/b&gt;&lt;/font&gt;" style="text;html=1;align=center;verticalAlign=middle;resizable=0;points=[];autosize=1;strokeColor=none;fillColor=none;" parent="1" vertex="1">
          <mxGeometry x="130" y="250" width="90" height="30" as="geometry" />
        </mxCell>
        <mxCell id="1rDSamccEq4zs1fKq_yu-96" value="&lt;font style=&quot;font-size: 10px;&quot;&gt;&lt;b style=&quot;&quot;&gt;[settings invalid ]&lt;/b&gt;&lt;/font&gt;" style="text;html=1;align=center;verticalAlign=middle;resizable=0;points=[];autosize=1;strokeColor=none;fillColor=none;" parent="1" vertex="1">
          <mxGeometry x="120" y="440" width="110" height="30" as="geometry" />
        </mxCell>
        <mxCell id="Jrj3SSD42e_Gp-1Ddq5E-3" style="edgeStyle=orthogonalEdgeStyle;rounded=0;orthogonalLoop=1;jettySize=auto;html=1;curved=0;" parent="1" source="1rDSamccEq4zs1fKq_yu-52" target="1rDSamccEq4zs1fKq_yu-5" edge="1">
          <mxGeometry relative="1" as="geometry">
            <Array as="points">
              <mxPoint x="230" y="170" />
              <mxPoint x="230" y="170" />
            </Array>
          </mxGeometry>
        </mxCell>
        <mxCell id="Jrj3SSD42e_Gp-1Ddq5E-4" value="&lt;div style=&quot;font-family: Consolas, &amp;quot;Courier New&amp;quot;, monospace; line-height: 19px; white-space: pre;&quot;&gt;&lt;span style=&quot;&quot;&gt;&lt;font style=&quot;font-size: 10px;&quot;&gt;updateSettings(&quot;TTS&quot;, ttsData)&lt;/font&gt;&lt;/span&gt;&lt;/div&gt;" style="text;whiteSpace=wrap;html=1;shadow=1;fillColor=none;labelBackgroundColor=none;textShadow=0;fontColor=default;" parent="1" vertex="1">
          <mxGeometry x="125" y="140" width="160" height="20" as="geometry" />
        </mxCell>
        <mxCell id="Jrj3SSD42e_Gp-1Ddq5E-5" value="&lt;div style=&quot;font-family: Consolas, &amp;quot;Courier New&amp;quot;, monospace; line-height: 19px; white-space: pre;&quot;&gt;&lt;font style=&quot;color: rgb(2, 2, 2); font-size: 10px;&quot;&gt;updateSettings(ttsData)&lt;/font&gt;&lt;/div&gt;" style="text;whiteSpace=wrap;html=1;" parent="1" vertex="1">
          <mxGeometry x="350" y="160" width="130" height="30" as="geometry" />
        </mxCell>
        <mxCell id="Jrj3SSD42e_Gp-1Ddq5E-6" style="edgeStyle=orthogonalEdgeStyle;rounded=0;orthogonalLoop=1;jettySize=auto;html=1;curved=0;" parent="1" source="1rDSamccEq4zs1fKq_yu-5" target="1rDSamccEq4zs1fKq_yu-6" edge="1">
          <mxGeometry relative="1" as="geometry">
            <Array as="points">
              <mxPoint x="380" y="190" />
              <mxPoint x="380" y="190" />
            </Array>
          </mxGeometry>
        </mxCell>
        <mxCell id="Jrj3SSD42e_Gp-1Ddq5E-7" value="&lt;div style=&quot;font-family: Consolas, &amp;quot;Courier New&amp;quot;, monospace; line-height: 19px; white-space: pre;&quot;&gt;&lt;font style=&quot;color: rgb(2, 2, 2); font-size: 10px;&quot;&gt;validateSettings(ttsData)&lt;/font&gt;&lt;/div&gt;" style="text;whiteSpace=wrap;html=1;" parent="1" vertex="1">
          <mxGeometry x="520" y="180" width="150" height="30" as="geometry" />
        </mxCell>
        <mxCell id="Jrj3SSD42e_Gp-1Ddq5E-11" value="&lt;div style=&quot;font-family: Consolas, &amp;quot;Courier New&amp;quot;, monospace; line-height: 19px; white-space: pre;&quot;&gt;&lt;font style=&quot;color: rgb(2, 2, 2); font-size: 10px;&quot;&gt;&amp;nbsp;validateAPISettings(ttsData)&lt;/font&gt;&lt;/div&gt;" style="text;whiteSpace=wrap;html=1;" parent="1" vertex="1">
          <mxGeometry x="510" y="248" width="170" height="30" as="geometry" />
        </mxCell>
        <mxCell id="sEEtw3KKttgepifFu2nr-3" value="googleSpeechAPI:&lt;br&gt;GoogleSpeechAPI" style="shape=umlLifeline;perimeter=lifelinePerimeter;whiteSpace=wrap;html=1;container=1;dropTarget=0;collapsible=0;recursiveResize=0;outlineConnect=0;portConstraint=eastwest;newEdgeStyle={&quot;curved&quot;:0,&quot;rounded&quot;:0};fillColor=light-dark(#A9C4EB,var(--ge-dark-color, #121212));" vertex="1" parent="1">
          <mxGeometry x="810" y="80" width="120" height="760" as="geometry" />
        </mxCell>
        <mxCell id="sEEtw3KKttgepifFu2nr-5" value="" style="html=1;points=[[0,0,0,0,5],[0,1,0,0,-5],[1,0,0,0,5],[1,1,0,0,-5]];perimeter=orthogonalPerimeter;outlineConnect=0;targetShapes=umlLifeline;portConstraint=eastwest;newEdgeStyle={&quot;curved&quot;:0,&quot;rounded&quot;:0};fillColor=light-dark(#A9C4EB,var(--ge-dark-color, #121212));" vertex="1" parent="sEEtw3KKttgepifFu2nr-3">
          <mxGeometry x="55" y="550" width="10" height="210" as="geometry" />
        </mxCell>
        <mxCell id="1rDSamccEq4zs1fKq_yu-5" value="" style="html=1;points=[[0,0,0,0,5],[0,1,0,0,-5],[1,0,0,0,5],[1,1,0,0,-5]];perimeter=orthogonalPerimeter;outlineConnect=0;targetShapes=umlLifeline;portConstraint=eastwest;newEdgeStyle={&quot;curved&quot;:0,&quot;rounded&quot;:0};fillColor=light-dark(#A9C4EB,var(--ge-dark-color, #121212));" parent="1" vertex="1">
          <mxGeometry x="300" y="170" width="10" height="730" as="geometry" />
        </mxCell>
        <mxCell id="sEEtw3KKttgepifFu2nr-10" style="edgeStyle=orthogonalEdgeStyle;rounded=0;orthogonalLoop=1;jettySize=auto;html=1;curved=0;" edge="1" parent="1">
          <mxGeometry relative="1" as="geometry">
            <Array as="points">
              <mxPoint x="870" y="660" />
              <mxPoint x="955" y="660" />
              <mxPoint x="955" y="680" />
            </Array>
            <mxPoint x="870" y="670" as="sourcePoint" />
            <mxPoint x="870" y="680" as="targetPoint" />
          </mxGeometry>
        </mxCell>
        <mxCell id="1rDSamccEq4zs1fKq_yu-42" value="alt" style="shape=umlFrame;whiteSpace=wrap;html=1;pointerEvents=0;fillColor=light-dark(#A9C4EB,var(--ge-dark-color, #121212));" parent="1" vertex="1">
          <mxGeometry x="70" y="248" width="730" height="302" as="geometry" />
        </mxCell>
        <mxCell id="sEEtw3KKttgepifFu2nr-11" style="edgeStyle=orthogonalEdgeStyle;rounded=0;orthogonalLoop=1;jettySize=auto;html=1;curved=0;" edge="1" parent="1">
          <mxGeometry relative="1" as="geometry">
            <Array as="points">
              <mxPoint x="570" y="280" />
              <mxPoint x="570" y="280" />
            </Array>
            <mxPoint x="510" y="280" as="sourcePoint" />
            <mxPoint x="690" y="280" as="targetPoint" />
          </mxGeometry>
        </mxCell>
        <mxCell id="sEEtw3KKttgepifFu2nr-12" value="apiValidation" style="html=1;verticalAlign=bottom;endArrow=open;dashed=1;endSize=8;curved=0;rounded=0;exitX=0;exitY=1;exitDx=0;exitDy=-5;exitPerimeter=0;" edge="1" parent="1" source="1rDSamccEq4zs1fKq_yu-36">
          <mxGeometry x="0.2407" y="-10" relative="1" as="geometry">
            <mxPoint x="700" y="290" as="sourcePoint" />
            <mxPoint x="510" y="330" as="targetPoint" />
            <Array as="points">
              <mxPoint x="680" y="330" />
              <mxPoint x="640" y="330" />
              <mxPoint x="670" y="330" />
              <mxPoint x="590" y="330" />
            </Array>
            <mxPoint as="offset" />
          </mxGeometry>
        </mxCell>
        <mxCell id="sEEtw3KKttgepifFu2nr-13" style="edgeStyle=orthogonalEdgeStyle;rounded=0;orthogonalLoop=1;jettySize=auto;html=1;curved=0;" edge="1" parent="1">
          <mxGeometry relative="1" as="geometry">
            <Array as="points">
              <mxPoint x="227.5" y="610" />
              <mxPoint x="227.5" y="610" />
            </Array>
            <mxPoint x="112.5" y="610" as="sourcePoint" />
            <mxPoint x="297.5" y="610" as="targetPoint" />
          </mxGeometry>
        </mxCell>
        <mxCell id="sEEtw3KKttgepifFu2nr-14" value="&lt;div style=&quot;font-family: Consolas, &amp;quot;Courier New&amp;quot;, monospace; line-height: 19px; white-space: pre;&quot;&gt;&lt;div style=&quot;line-height: 19px;&quot;&gt;&lt;font style=&quot;color: rgb(2, 2, 2); font-size: 10px;&quot;&gt;updateSettings(&quot;GESTURE&quot;, &lt;br/&gt;gestureData)&lt;/font&gt;&lt;/div&gt;&lt;/div&gt;" style="text;whiteSpace=wrap;html=1;shadow=1;fillColor=none;labelBackgroundColor=none;textShadow=0;fontColor=default;" vertex="1" parent="1">
          <mxGeometry x="120" y="560" width="160" height="20" as="geometry" />
        </mxCell>
        <mxCell id="sEEtw3KKttgepifFu2nr-17" style="edgeStyle=orthogonalEdgeStyle;rounded=0;orthogonalLoop=1;jettySize=auto;html=1;curved=0;" edge="1" parent="1" target="sEEtw3KKttgepifFu2nr-5">
          <mxGeometry relative="1" as="geometry">
            <Array as="points">
              <mxPoint x="310" y="641" />
              <mxPoint x="588" y="641" />
              <mxPoint x="588" y="640" />
            </Array>
            <mxPoint x="310" y="640" as="sourcePoint" />
            <mxPoint x="495" y="640" as="targetPoint" />
          </mxGeometry>
        </mxCell>
        <mxCell id="sEEtw3KKttgepifFu2nr-18" style="edgeStyle=orthogonalEdgeStyle;rounded=0;orthogonalLoop=1;jettySize=auto;html=1;curved=0;" edge="1" parent="1">
          <mxGeometry relative="1" as="geometry">
            <Array as="points">
              <mxPoint x="510" y="210" />
              <mxPoint x="595" y="210" />
              <mxPoint x="595" y="230" />
            </Array>
            <mxPoint x="510" y="220" as="sourcePoint" />
            <mxPoint x="510" y="230" as="targetPoint" />
          </mxGeometry>
        </mxCell>
        <mxCell id="sEEtw3KKttgepifFu2nr-19" value="&lt;div style=&quot;font-family: Consolas, &amp;quot;Courier New&amp;quot;, monospace; line-height: 19px; white-space: pre;&quot;&gt;&lt;div style=&quot;line-height: 19px;&quot;&gt;&lt;font color=&quot;#020202&quot;&gt;validateSettings(geatureDate)&lt;/font&gt;&lt;/div&gt;&lt;/div&gt;" style="text;whiteSpace=wrap;html=1;shadow=1;fillColor=none;labelBackgroundColor=none;textShadow=0;fontColor=default;" vertex="1" parent="1">
          <mxGeometry x="880" y="630" width="160" height="20" as="geometry" />
        </mxCell>
        <mxCell id="sEEtw3KKttgepifFu2nr-20" value="alt" style="shape=umlFrame;whiteSpace=wrap;html=1;pointerEvents=0;fillColor=light-dark(#A9C4EB,var(--ge-dark-color, #121212));" vertex="1" parent="1">
          <mxGeometry x="290" y="700" width="600" height="160" as="geometry" />
        </mxCell>
        <mxCell id="sEEtw3KKttgepifFu2nr-21" value="&lt;font size=&quot;1&quot;&gt;&lt;b&gt;[settings valid]&lt;/b&gt;&lt;/font&gt;" style="text;html=1;align=center;verticalAlign=middle;resizable=0;points=[];autosize=1;strokeColor=none;fillColor=none;" vertex="1" parent="1">
          <mxGeometry x="350" y="700" width="90" height="30" as="geometry" />
        </mxCell>
        <mxCell id="sEEtw3KKttgepifFu2nr-22" value="success" style="html=1;verticalAlign=bottom;endArrow=open;dashed=1;endSize=8;curved=0;rounded=0;exitX=0;exitY=1;exitDx=0;exitDy=-5;exitPerimeter=0;" edge="1" parent="1" target="1rDSamccEq4zs1fKq_yu-5">
          <mxGeometry x="0.2407" y="-10" relative="1" as="geometry">
            <mxPoint x="875" y="750" as="sourcePoint" />
            <mxPoint x="700" y="755" as="targetPoint" />
            <Array as="points">
              <mxPoint x="870" y="755" />
              <mxPoint x="830" y="755" />
              <mxPoint x="860" y="755" />
              <mxPoint x="780" y="755" />
            </Array>
            <mxPoint as="offset" />
          </mxGeometry>
        </mxCell>
        <mxCell id="sEEtw3KKttgepifFu2nr-23" value="" style="endArrow=none;dashed=1;html=1;rounded=0;elbow=vertical;exitX=0.003;exitY=0.608;exitDx=0;exitDy=0;exitPerimeter=0;entryX=1;entryY=0.592;entryDx=0;entryDy=0;entryPerimeter=0;" edge="1" parent="1" source="sEEtw3KKttgepifFu2nr-20" target="sEEtw3KKttgepifFu2nr-20">
          <mxGeometry width="50" height="50" relative="1" as="geometry">
            <mxPoint x="220" y="794" as="sourcePoint" />
            <mxPoint x="880" y="790" as="targetPoint" />
            <Array as="points" />
          </mxGeometry>
        </mxCell>
        <mxCell id="sEEtw3KKttgepifFu2nr-24" value="error" style="html=1;verticalAlign=bottom;endArrow=open;dashed=1;endSize=8;curved=0;rounded=0;exitX=0;exitY=1;exitDx=0;exitDy=-5;exitPerimeter=0;" edge="1" parent="1">
          <mxGeometry x="0.2407" y="-10" relative="1" as="geometry">
            <mxPoint x="872.5" y="830" as="sourcePoint" />
            <mxPoint x="307.5" y="835" as="targetPoint" />
            <Array as="points">
              <mxPoint x="867.5" y="835" />
              <mxPoint x="827.5" y="835" />
              <mxPoint x="857.5" y="835" />
              <mxPoint x="777.5" y="835" />
            </Array>
            <mxPoint as="offset" />
          </mxGeometry>
        </mxCell>
        <mxCell id="sEEtw3KKttgepifFu2nr-25" value="UpdateComplete" style="html=1;verticalAlign=bottom;endArrow=open;dashed=1;endSize=8;curved=0;rounded=0;" edge="1" parent="1">
          <mxGeometry x="0.0038" relative="1" as="geometry">
            <mxPoint x="300" y="880" as="sourcePoint" />
            <mxPoint x="115" y="880" as="targetPoint" />
            <mxPoint as="offset" />
            <Array as="points">
              <mxPoint x="280" y="880" />
              <mxPoint x="260" y="880" />
            </Array>
          </mxGeometry>
        </mxCell>
      </root>
    </mxGraphModel>
  </diagram>
</mxfile>
